# xmcd
#
# Track frame offsets: 
#        182
#        19352
#        40775
#        61202
#        80240
#        99902
#        125622
#        147275
#
# Disc length: 2168 seconds
#
# Revision: 3
# Processed by: cddbd v1.5.2PL0 Copyright (c) Steve Scherf et al.
# Submitted via: ExactAudioCopy v1.3
#
DISCID=6a087608
DTITLE=Johnny Gill - Chemistry
DYEAR=1985
DGENRE=R&B
TTITLE0=Half Crazy
TTITLE1=Can't Wait Til Tomorrow
TTITLE2=Don't Take Away My Pride
TTITLE3=One Small Light
TTITLE4=The Way That You Love Me
TTITLE5=Because Of You
TTITLE6=Chemistry
TTITLE7=I Found Love
EXTD=
EXTT0=
EXTT1=
EXTT2=
EXTT3=
EXTT4=
EXTT5=
EXTT6=
EXTT7=
PLAYORDER=
